svg
<svg xmlns="http://www.w3.org/2000/svg" viewBox="0 0 100 100">
  <defs>
    <linearGradient id="grad" x1="0%" y1="0%" x2="100%" y2="100%">
      <stop offset="0%" style="stop-color:#EF3340;stop-opacity:1" />
      <stop offset="100%" style="stop-color:#C72834;stop-opacity:1" />
    </linearGradient>
  </defs>
  <!-- Singapore Lion silhouette -->
  <circle cx="50" cy="50" r="48" fill="url(#grad)"/>
  <g fill="white">
    <!-- Crescent Moon -->
    <path d="M 25 35 Q 20 45 25 55 Q 30 52 30 45 Q 30 38 25 35 Z"/>
    <!-- Five Stars -->
    <polygon points="40,35 41,38 44,38 42,40 43,43 40,41 37,43 38,40 36,38 39,38"/>
    <polygon points="48,35 49,38 52,38 50,40 51,43 48,41 45,43 46,40 44,38 47,38"/>
    <polygon points="40,45 41,48 44,48 42,50 43,53 40,51 37,53 38,50 36,48 39,48"/>
    <polygon points="48,45 49,48 52,48 50,50 51,53 48,51 45,53 46,50 44,48 47,48"/>
    <polygon points="44,52 45,55 48,55 46,57 47,60 44,58 41,60 42,57 40,55 43,55"/>
  </g>
  <!-- Island outline at bottom -->
  <ellipse cx="50" cy="75" rx="35" ry="8" fill="white" opacity="0.3"/>
</svg>
